<svg xmlns="http://www.w3.org/2000/svg" width="350" height="100" viewBox="0 0 350 100">
    <g fill="none" fill-rule="nonzero">
        <path fill="#000" d="M107.164 40.839h-12.41v5.822H105v5.998H94.818v12.393H87.5v-30.64h19.664v6.427zm19.393-6.857a15.511 15.511 0 0 1 15.909 15.75c0 8.786-7.123 15.909-15.91 15.909-8.786 0-15.908-7.123-15.908-15.91a15.527 15.527 0 0 1 15.909-15.75zm0 24.898a8.639 8.639 0 0 0 8.67-9.148 8.639 8.639 0 0 0-8.607-9.148c-4.931 0-8.559 3.85-8.559 9.148s3.564 9.148 8.496 9.148zm35.716-24.898a15.511 15.511 0 0 1 15.909 15.75c0 8.786-7.123 15.909-15.91 15.909-8.786 0-15.908-7.123-15.908-15.91a15.527 15.527 0 0 1 15.909-15.75zm0 24.898a8.639 8.639 0 0 0 8.607-9.148 8.639 8.639 0 0 0-8.607-9.148c-4.948 0-8.56 3.85-8.56 9.148s3.676 9.148 8.56 9.148zM194.09 34.41c8.461 0 15.32 6.86 15.32 15.32 0 8.462-6.859 15.321-15.32 15.321h-11.36v-30.64h11.36zm0 23.991c5.552 0 8.352-4.04 8.352-8.893a7.955 7.955 0 0 0-8.273-8.464h-4.28v17.341l4.2.016zm51.068-8.67a15.718 15.718 0 0 1-3.882 10.548l3.532 4.772h-8.257l-.652-.922a16.816 16.816 0 0 1-6.634 1.352 15.527 15.527 0 0 1-15.91-15.75c0-8.787 7.124-15.91 15.91-15.91 8.786 0 15.909 7.123 15.909 15.91h-.016zM229.25 58.88c.84 0 1.675-.118 2.482-.35l-5.584-7.525h8.257l2.402 3.277a9.736 9.736 0 0 0 1.05-4.55 8.639 8.639 0 0 0-8.607-9.148c-4.932 0-8.56 3.85-8.56 9.148s3.724 9.148 8.655 9.148h-.095zm37.482-24.469h7.032v19.52A11.407 11.407 0 0 1 261.8 65.706c-6.523 0-12.027-4.375-12.027-11.773v-19.52h7.047V53.98a4.582 4.582 0 0 0 4.98 5.122c2.132 0 4.932-.922 4.932-5.122V34.41zm19.409 24.134h12.536v6.475h-19.584V34.411h19.187v6.475h-12.14v5.569h9.085v6.363h-9.084v5.727zm27.268-24.659a11.98 11.98 0 0 1 10.516 6.364l-5.155 3.102c-1.702-2.18-3.181-3.182-5.36-3.182-1.878 0-3.278 1.082-3.278 2.625 0 1.544.875 2.355 3.054 3.182l2.053.748c7.127 2.498 9.545 5.648 9.545 9.72 0 6.364-6.03 9.403-11.264 9.403a11.852 11.852 0 0 1-11.406-7.573l5.377-2.88a6.682 6.682 0 0 0 6.03 4.105c2.274 0 3.977-.923 3.977-2.975s-1.05-2.752-4.328-3.977l-1.75-.62c-4.502-1.592-8.304-3.755-8.304-9.371.048-5.123 4.773-8.67 10.293-8.67zm36.591.525v6.475h-7.43v24.166h-7.031V40.886h-7.43v-6.475H350z"/>
        <path fill="#FDBC23" d="M35.795 14C16.026 14 0 30.026 0 49.795c0 19.77 16.026 35.796 35.795 35.796 19.77 0 35.796-16.026 35.796-35.796A35.795 35.795 0 0 0 35.795 14zm0 66.023c-16.694 0-30.227-13.533-30.227-30.228 0-16.694 13.533-30.227 30.227-30.227 16.695 0 30.228 13.533 30.228 30.227a30.227 30.227 0 0 1-30.228 30.228z"/>
        <g fill="#000">
            <path d="M43.973 30.593a.875.875 0 0 0-.843.907l.763 36.59a.875.875 0 0 0 1.75 0L44.88 31.5a.875.875 0 0 0-.875-.86l-.032-.047zM41.539 30.545a.875.875 0 0 0-.891.86L39.614 68.09a.875.875 0 0 0 1.75 0L42.398 31.5a.86.86 0 0 0-.86-.955zM30.911 30.61a4.136 4.136 0 0 1 3.31 1.78 9.545 9.545 0 0 1 1.59 5.903c0 3.5-1.59 6.364-3.404 7.366a.923.923 0 0 0-.51.843v21.589a.907.907 0 0 1-.302.764 1.24 1.24 0 0 1-.747.238 1.24 1.24 0 0 1-.764-.238.907.907 0 0 1-.302-.764V46.502a.923.923 0 0 0-.51-.843c-1.813-.97-3.388-3.866-3.388-7.366a9.545 9.545 0 0 1 1.591-5.902 4.152 4.152 0 0 1 3.436-1.782z"/>
        </g>
    </g>
</svg>
